# xmcd
#
# Track frame offsets:
# 150
# 14532
# 29362
# 41589
# 55236
# 68415
# 82927
# 97702
# 113174
# 128616
# 142108
# 155192
# 169572
# 183114
# 197223
# 217243
# 229095
# 243324
# 255211
# 269066
#
# Disc length: 3763 seconds
#
# Revision: 0
# Processed by: cddbd v1.5.1PL0 Copyright (c) Steve Scherf et al.
# Submitted via: Audion 3.0.2 (http://www.panic.com/audion/)
#
DISCID=100eb114
DTITLE=Ella Fitzgerald - Ella Fitzgerald
DYEAR=1900
DGENRE=
TTITLE0=Into Each Life Some Rain Must Fall
TTITLE1=Undecided
TTITLE2=Billy
TTITLE3=Gulf Coast Blues
TTITLE4=I Got It Bad (And That Ain't Good)
TTITLE5=I'm Making Believe
TTITLE6=And Her Tears Flowed Like Wine
TTITLE7=I'm Confessin'  (That I Love You)
TTITLE8=You Don't Know What Love Is
TTITLE9=Who Are You?
TTITLE10=Angel Eyes
TTITLE11=Taking A Chance on Love
TTITLE12=Jim
TTITLE13=Darktown Strutters Ball
TTITLE14=I Want To Be Happy
TTITLE15=Wake Up and Live
TTITLE16=Bei Mir Bist Du Schon
TTITLE17=A Tisket A Tasket
TTITLE18=My Man
TTITLE19=This Love Of Mine
EXTD=
EXTT0=
EXTT1=
EXTT2=
EXTT3=
EXTT4=
EXTT5=
EXTT6=
EXTT7=
EXTT8=
EXTT9=
EXTT10=
EXTT11=
EXTT12=
EXTT13=
EXTT14=
EXTT15=
EXTT16=
EXTT17=
EXTT18=
EXTT19=
PLAYORDER=
